<?xml version="1.0" encoding="UTF-8"?>
<svg id="Layer_2" data-name="Layer 2" xmlns="http://www.w3.org/2000/svg" viewBox="0 0 301.22 362.82">
  <defs>
    <style>
      .cls-1 {
        fill: #f8db8f;
      }

      .cls-2 {
        fill: #f9af3b;
      }

      .cls-3 {
        fill: #fdfcfc;
      }

      .cls-4 {
        fill: #553617;
      }

      .cls-5 {
        fill: #6e2f19;
      }

      .cls-6 {
        fill: #181306;
      }
    </style>
  </defs>
  <g id="Layer_1-2" data-name="Layer 1">
    <g>
      <path class="cls-2" d="M276,86.01c-1.34-2.75-12.54-12.6-10.99-15,1.54.72,3.83.87,5.26-.01,1.13-.7.64-1.9.73-1.99,1.12-.97,2.93.03,3.78-3.71,2.83-12.46-11.26-14.28-18.78-7.29-5.36-.83-8.2-2.96-12-6,10.91-10.99,26.08-16.42,38.54-4.04s11.34,32.76-6.54,38.04Z"/>
      <path class="cls-2" d="M86,51.01c-5.18,6-5.69,3.91-11,7-9.14-9.51-25.4-.7-16,11-.62.85-1.05,1.92-.99,3,12.97-2.51,5.58,1.68,1.58,7.09-1.24,1.68-5.38,6.5-5.59,6.91-15.53-6.79-17.02-23.65-6.51-36.01,11.71-13.77,26.76-11.04,38.51,1.01Z"/>
      <path class="cls-1" d="M203,219.01c-11.59,5.2-15.96,9.88-30.46,11.04-20,1.59-26.69-3.09-43.54-10.04-1.14-3.31-3.47-5.22-4.78-8.72-4.14-11.09-3.06-28.83,7.44-36.11,16.48-11.42,52.3-12.08,68.26.4,12.39,9.69,11.01,31.18,3.07,43.43ZM170,209.01c-3.81-.57-5.34-9.22-3.88-10.89.19-.22,3.51-.75,5.4-2.1,1.09-.78,9.22-7.9,9.54-8.45,8.04-13.93-29.58-15.63-32.65-4.59-1.06,3.83,8.59,10.99,11.65,13.5,1.05.86,3.55,1.3,3.79,1.68.82,1.28.25,7.1-.84,8.85-1.15.03-4.2,2.56-6.56,2.94-5.16.81-9.93-.52-13.46-4.41-2.07-.86-2.2-9.49-4.46-8.51-2.78,1.2-.17,5.74.67,7.31,5.04,9.38,18.33,12.07,25.81,3.68,1.01.43,1.98,1.51,3,2,8.49,4.06,16.35,4.44,22.43-4.07.84-1.18,4.87-7.92,2.05-8.92-2.2-.78-2.22,5.96-4.05,6.92-6,8.83-10.75,4.95-18.43,5.07Z"/>
      <path class="cls-1" d="M271,69.01l-15-11c7.52-6.99,21.61-5.17,18.78,7.29-.85,3.74-2.66,2.74-3.78,3.71Z"/>
      <path class="cls-1" d="M75,58.01c-4.04,2.35-13.52,7.61-16,11-9.4-11.7,6.86-20.51,16-11Z"/>
      <g>
        <path class="cls-2" d="M86,236.01c5.07,9.56,27.26,8.64,29.01,23,1.06.81,8.71-9.39,7-12,3.99,1.1,5.48,3.47,7.99,6,1.29,14.42.89,30.96,5.81,44.69,5.89,16.43,15.72,12.74,23.6,23.4,1.87,2.53,4.17,9.91,6.08,9.92.67,0,3.71-9.2,6.11-11.91,3.92-4.44,9.62-5.9,13.9-9.1,13.15-9.82,13.43-40.87,13.5-56,2.71-3.28,4.71-5.55,8.99-7-.6,2.39,5.02,13.65,8,11,.17-.15.18-2.87,1.14-4.36,6.34-9.88,21.94-8.68,26.87-17.64,5.12,11.1,3.84,26.46,15,34-32.93,3.65-52.98,48.48-30,74-10.57,15.84-38.82,25.35-54.93,13.43-5.57-4.12-5.91-9.86-10.05-14.43-6.96,30.01-50.18,22.23-63.01,1,1.66-1.78,6.87-12.07,7.78-14.72,10.34-30.28-18.73-65.58-50.78-58.28l-16-23c1.06-1.53,1.99-5.94,2-8,9.21,1.79,19.79,30.51,28.37,28.86,6.51-1.25,9.98-28.02,13.63-32.86Z"/>
        <path class="cls-5" d="M44,240.01c-.01,2.06-.94,6.47-2,8-1.88,2.71-10.16,5.78-13.52,6.03-8.83.65-21-6.19-23.49-15.03l3-.5c-3.26-3.07-6.49-6.15-7.99-10.5,5.71,1.89,10.55.98,15.99-1.02l-1.99-1.48c12.33-8.79,30.11-1.27,30,14.5Z"/>
        <path class="cls-1" d="M130,253.01c1.52,1.53,2.92,1.79,4.2,4.3,1.65,3.24,1.18,10.37,4.1,6.44,2.14-2.89,2.41-6.73,4.2-9.74,8.97,8.3,16.54,18.3,20.52,29.99,8.56-9.54,14.33-21.65,24.49-29.99,2.03,3.64,2.37,8.81,6.49,10.99-.34-4.6,2.31-7.73,5.01-11-.07,15.13-.36,46.18-13.5,56-4.28,3.2-9.98,4.65-13.9,9.1-2.4,2.72-5.44,11.92-6.11,11.91-1.91-.01-4.21-7.39-6.08-9.92-7.88-10.66-17.71-6.97-23.6-23.4-4.92-13.73-4.52-30.27-5.81-44.69Z"/>
        <g>
          <path class="cls-1" d="M229,344.01c-22.98-25.52-2.93-70.35,30-74,54.5-6.04,58.86,92.33-2.38,86.87-7.88-.7-22.34-7.02-27.62-12.87ZM267.72,281.21c-9.4,2.07-11.4,21.86-.22,21.86,11.97,0,15.19-25.15.22-21.86ZM246.65,283.31c-11.16.62-12.56,23.74,1.63,20.49,8.15-1.87,8.73-21.06-1.63-20.49ZM286.65,297.31c-12.95.69-14.37,23.69-1.64,20.27,10.9-2.93,12.37-20.84,1.64-20.27ZM248.81,311.24c-12.68.82-24.06,12.56-16.48,24.94,3.5,5.72,7.6,3.07,12.91,4.09,8.15,1.56,9.37,3.91,15.25,7.75,10.19,6.66,21.43-6.37,18.83-16.82-3.18-12.75-17.94-20.78-30.51-19.96Z"/>
          <path class="cls-5" d="M248.81,311.24c12.57-.82,27.33,7.21,30.51,19.96,2.6,10.45-8.64,23.48-18.83,16.82-5.88-3.85-7.1-6.19-15.25-7.75-5.3-1.02-9.41,1.62-12.91-4.09-7.58-12.37,3.8-24.12,16.48-24.94Z"/>
          <path class="cls-5" d="M267.72,281.21c14.96-3.29,11.74,21.86-.22,21.86-11.17,0-9.18-19.79.22-21.86Z"/>
          <path class="cls-5" d="M286.65,297.31c10.73-.57,9.26,17.34-1.64,20.27-12.73,3.42-11.31-19.58,1.64-20.27Z"/>
          <path class="cls-5" d="M246.65,283.31c10.36-.58,9.78,18.62,1.63,20.49-14.19,3.25-12.79-19.87-1.63-20.49Z"/>
        </g>
        <g>
          <path class="cls-1" d="M101,344.01c-7.59,8.14-23.46,13.72-34.49,12.98-48.47-3.27-50.04-76.52-8.51-85.98,32.05-7.3,61.12,28,50.78,58.28-.9,2.65-6.12,12.94-7.78,14.72ZM57.73,281.21c-10.93,2.37-4.78,23.93,6.54,21.63,10.37-2.11,6.4-24.43-6.54-21.63ZM82.65,283.31c-9.81.52-9.32,18.53-.94,20.49,14.88,3.48,12.44-21.1.94-20.49ZM42.66,297.31c-14.3.71-2.92,27.18,8.32,19.18,7.52-5.35.07-19.59-8.32-19.18ZM77.83,311.26c-12.15.61-27.4,10.03-27.47,23.43-.05,8.23,7.94,17.34,16.48,14.67,3.34-1.04,4.57-3.88,7.47-5.54,2.46-1.41,7.59-2.96,10.46-3.54,5.08-1.03,10.37,1.53,13.46-4.54,7.07-13.9-6.89-25.15-20.39-24.47Z"/>
          <path class="cls-5" d="M77.83,311.26c13.49-.68,27.46,10.57,20.39,24.47-3.09,6.07-8.38,3.51-13.46,4.54-2.87.58-8,2.14-10.46,3.54-2.89,1.66-4.13,4.49-7.47,5.54-8.54,2.67-16.53-6.43-16.48-14.67.07-13.4,15.33-22.81,27.47-23.43Z"/>
          <path class="cls-5" d="M57.73,281.21c12.94-2.8,16.91,19.51,6.54,21.63-11.31,2.31-17.46-19.26-6.54-21.63Z"/>
          <path class="cls-5" d="M42.66,297.31c8.39-.42,15.84,13.82,8.32,19.18-11.24,8-22.62-18.46-8.32-19.18Z"/>
          <path class="cls-5" d="M82.65,283.31c11.49-.61,13.94,23.97-.94,20.49-8.38-1.96-8.86-19.97.94-20.49Z"/>
        </g>
      </g>
      <path class="cls-6" d="M163,207.01c1.09-1.74,1.66-7.56.84-8.85-.24-.38-2.74-.83-3.79-1.68-3.06-2.5-12.71-9.67-11.65-13.5,3.06-11.04,40.69-9.34,32.65,4.59-.32.55-8.45,7.67-9.54,8.45-1.89,1.35-5.21,1.88-5.4,2.1-1.45,1.66.08,10.32,3.88,10.89-.2,0-1.28,1.1-2,1-1.02-.49-1.99-1.57-3-2-.71-.3-1.89-1-2-1Z"/>
      <path class="cls-4" d="M165,208.01c-7.49,8.39-20.77,5.7-25.81-3.68-.84-1.57-3.45-6.11-.67-7.31,2.26-.97,2.39,7.65,4.46,8.51,3.53,3.89,8.3,5.23,13.46,4.41,2.36-.37,5.41-2.91,6.56-2.94.11,0,1.29.7,2,1Z"/>
      <path class="cls-4" d="M168,210.01c.72.1,1.8-1,2-1,7.69-.11,12.43,3.76,18.43-5.07,1.83-.97,1.85-7.71,4.05-6.92,2.81,1-1.21,7.75-2.05,8.92-6.09,8.51-13.95,8.13-22.43,4.07Z"/>
      <g>
        <path class="cls-5" d="M86,51.01c.63-.73,2.38-1.33,2.98-2.5-3.08-2.44-7.11-3.7-8.98-7.49,20.03,1.37,32.76-17.43,53-17.02-3.01-4.56-9.69-6.31-15-6,8.54-7.47,22.31-5.66,32.26-1.75,2.88,1.13,4.91,3.06,7.74,3.75l-.45-7.04-6.03-12.97c12.35,1.75,24.27,9.49,27.57,21.94,5.75-.67,11.63-1.42,17.45-.96,21.12,1.65,30.61,25.08,53.46,22.05-1.88,3.64-6.13,4.85-9,7.49.42.94,2.16.83,3,1.5,3.8,3.04,6.64,5.17,12,6l15,11c-.1.08.4,1.29-.73,1.99-1.43.88-3.72.74-5.26.01-1.55,2.4,9.65,12.25,10.99,15,1.67,3.41,4.68,16.5,4.99,20.52,1.14,14.92-6.22,27.5,11.33,36.7,1.92,1.01,6.13.53,2.4,3.02-4.07,2.71-9.01,2.99-13.71,3.77,8.35,8.17,13.3,17.97,12.99,29.98-4.69-2.05-6.48-5.66-11.63-7.86-2.61-1.12-5.51-1.99-8.36-2.13,4.9,12.28,5.99,25.65.5,37.99-.34.77-3.14,6.68-4.49,5-.11-4.67.67-9.65-1.5-13.99-2.31,5.32-2.88,9.66-6.53,14.47-3.32,4.37-14.97,11.65-15.49,12.51-1.06,1.77-.6,6.57-2.49,10.01-4.94,8.96-20.53,7.76-26.87,17.64-.96,1.49-.97,4.21-1.14,4.36-2.98,2.65-8.6-8.61-8-11-4.28,1.45-6.27,3.72-8.99,7s-5.35,6.4-5.01,11c-4.12-2.19-4.46-7.36-6.49-10.99-10.16,8.35-15.93,20.46-24.49,29.99-3.98-11.69-11.55-21.69-20.52-29.99-1.79,3.02-2.05,6.85-4.2,9.74-2.91,3.93-2.45-3.2-4.1-6.44-1.28-2.52-2.68-2.77-4.2-4.3-2.51-2.53-4-4.9-7.99-6,1.71,2.61-5.93,12.81-7,12-1.75-14.36-23.95-13.44-29.01-23-1.5-2.83-1.64-9.98-2.16-10.84-.26-.42-6.8-3.26-8.75-4.75-6.28-4.79-12.38-13.16-12.1-21.41-4.28,3.05-2.72,9.54-3,14-11.25-11.08-9.1-29.28-4-42.99-7.13.56-13.5,4-17.99,9.51-3.33,1.43-1-8.63-.53-10.54,1.95-7.9,6.07-13.22,11.53-18.96-4.57-1.13-12.76-.43-14-6,3.74-.17,7.13-3.29,9.51-6,10.16-11.56,3.98-16.81,4.5-29.5.16-3.93,3.32-19.26,4.99-22.51.21-.41,4.35-5.23,5.59-6.91,3.99-5.41,11.39-9.6-1.58-7.09-.06-1.07.37-2.15.99-3,2.48-3.39,11.96-8.65,16-11,5.31-3.09,5.82-1,11-7ZM203,219.01c3.39-1.52,7.74-2.37,11.36-4.14,13.24-6.48,28.64-14.48,32.65-29.86,1.56-1.23,3.84,7.5,3.91,8.6.06,1.03-2.33,7.29.56,4.38,4.76-7.35,5.36-16.99,4.56-25.53-.49-5.26-6.64-19.99-5.9-22.74,1.44-5.31,10.21-.62,13.86-1.73-16.98-13.03-13.68-35.42-23.56-52.93-6.25-11.08-14.86-15.26-26.2-19.8-1.8-.72-7.94-1.96-8.25-2.26-2.38-2.34,6.31-3.11,6-4.99h-24.5c-1.58,0-8.73,1.67-10.72,2.28-3.46,1.06-8.05,4.84-11.3,4.8-2.15-.03-9.52-4.72-13.43-5.63-1.33-.31-7.7-1.45-8.55-1.45h-24.5l6.99,3.99c-23.1,4.38-38.17,20.98-44.49,43.01-2.64,9.18-2.02,20.01-7.99,27.01l-6.51,5.98c20.51-2.9,13.83,1.78,10.49,15-2.87,11.36-5.23,25.85,3.5,35.01.06-3.33-.6-7.13,1.51-10,9.57,18.75,28.62,24.62,46.5,32,16.84,6.94,23.54,11.63,43.54,10.04,14.5-1.16,18.88-5.84,30.46-11.04Z"/>
        <path class="cls-2" d="M129,220.01c-17.88-7.37-36.93-13.24-46.5-32-2.1,2.87-1.45,6.67-1.51,10-8.73-9.15-6.37-23.65-3.5-35.01,3.35-13.22,10.02-17.91-10.49-15l6.51-5.98c5.97-7,5.36-17.83,7.99-27.01,6.33-22.03,21.39-38.64,44.49-43.01l-6.99-3.99h24.5c.85,0,7.22,1.14,8.55,1.45,3.91.91,11.28,5.61,13.43,5.63,3.25.04,7.84-3.74,11.3-4.8,1.99-.61,9.14-2.28,10.72-2.28h24.5c.31,1.88-8.38,2.65-6,4.99.31.3,6.44,1.54,8.25,2.26,11.33,4.54,19.95,8.73,26.2,19.8,9.88,17.51,6.58,39.9,23.56,52.93-3.65,1.11-12.41-3.58-13.86,1.73-.75,2.74,5.41,17.48,5.9,22.74.8,8.54.21,18.17-4.56,25.53-2.89,2.91-.5-3.35-.56-4.38-.07-1.11-2.35-9.83-3.91-8.6-4.02,15.37-19.41,23.37-32.65,29.86-3.61,1.77-7.97,2.62-11.36,4.14,7.94-12.25,9.32-33.74-3.07-43.43-15.96-12.48-51.79-11.82-68.26-.4-10.5,7.28-11.59,25.02-7.44,36.11,1.31,3.51,3.64,5.41,4.78,8.72ZM134.94,101.08c-.16-.25-4.76-1.92-5.51-2.02-6.57-.9-16.55,3.58-20.43,8.94,5.08.13,9.66-2.18,14.62-2.87,2.35-.32,14.62,1.07,11.32-4.06ZM222.99,110.01c-.05-2.41-3.88-4.68-5.67-5.82-4.75-3.01-11.92-6.26-17.61-4.96-2.52.58-7.13,4.35-3.05,5.63,3.45,1.08,11.45.16,16.57,1.43,3.64.91,6.27,2.92,9.77,3.72ZM143.87,142.34c0-7.91-6.41-14.32-14.32-14.32s-14.32,6.41-14.32,14.32,6.41,14.32,14.32,14.32,14.32-6.41,14.32-14.32ZM216.02,142.35c0-7.94-6.43-14.37-14.37-14.37s-14.37,6.43-14.37,14.37,6.43,14.37,14.37,14.37,14.37-6.43,14.37-14.37Z"/>
        <path class="cls-6" d="M216.02,142.35c0,7.94-6.43,14.37-14.37,14.37s-14.37-6.43-14.37-14.37,6.43-14.37,14.37-14.37,14.37,6.43,14.37,14.37ZM204.32,138.65c0-2.36-1.91-4.28-4.28-4.28s-4.28,1.91-4.28,4.28,1.91,4.28,4.28,4.28,4.28-1.91,4.28-4.28Z"/>
        <path class="cls-6" d="M143.87,142.34c0,7.91-6.41,14.32-14.32,14.32s-14.32-6.41-14.32-14.32,6.41-14.32,14.32-14.32,14.32,6.41,14.32,14.32ZM135.32,138.65c0-2.36-1.91-4.28-4.28-4.28s-4.28,1.91-4.28,4.28,1.91,4.28,4.28,4.28,4.28-1.91,4.28-4.28Z"/>
        <path class="cls-4" d="M222.99,110.01c-3.5-.8-6.13-2.81-9.77-3.72-5.11-1.28-13.12-.35-16.57-1.43-4.08-1.28.53-5.05,3.05-5.63,5.69-1.3,12.86,1.95,17.61,4.96,1.79,1.14,5.62,3.41,5.67,5.82Z"/>
        <path class="cls-4" d="M134.94,101.08c3.3,5.13-8.96,3.73-11.32,4.06-4.97.68-9.54,2.99-14.62,2.87,3.89-5.36,13.86-9.84,20.43-8.94.75.1,5.35,1.77,5.51,2.02Z"/>
        <circle class="cls-3" cx="200.04" cy="138.65" r="4.28"/>
        <circle class="cls-3" cx="131.04" cy="138.65" r="4.28"/>
      </g>
    </g>
  </g>
</svg>